<?xml version="1.0" encoding="UTF-8" standalone="no"?>
<svg
   xmlns:dc="http://purl.org/dc/elements/1.1/"
   xmlns:cc="http://creativecommons.org/ns#"
   xmlns:rdf="http://www.w3.org/1999/02/22-rdf-syntax-ns#"
   xmlns:svg="http://www.w3.org/2000/svg"
   xmlns="http://www.w3.org/2000/svg"
   width="45.815952mm"
   height="43.049133mm"
   viewBox="0 0 45.815952 43.049133"
   id="svg895">
  <g
     id="g825">
    <path
       style="fill:#dfb3ea;stroke-width:0.26458332"
       d="m 23.100171,1.34e-4 c -0.59059,0.01786 -1.30776,1.83102 -3.328997,7.705471 -1.382447,4.01789 -2.636747,7.42854 -2.787425,7.57886 -0.173712,0.1733 -3.312546,0.29874 -8.577254,0.34314 -6.047269,0.051 -8.33065,0.15399 -8.405688,0.3793 -0.05667,0.17014 2.879987,2.64975 6.526215,5.51026 3.646228,2.8605 6.629569,5.37725 6.629569,5.59242 0,0.21518 -1.071562,3.63936 -2.38125,7.60936 -1.309687,3.96999 -2.38125,7.48938 -2.38125,7.82123 0,0.44446 0.121973,0.57144 0.463021,0.48214 0.254662,-0.0667 3.524271,-2.15769 7.265707,-4.64675 l 6.802682,-4.5253 7.02386,4.48345 c 3.86309,2.46599 7.14192,4.48396 7.28638,4.48396 0.50498,0 0.24526,-0.98875 -2.11873,-8.06979 -1.30969,-3.923 -2.38125,-7.32189 -2.38125,-7.55303 0,-0.23113 1.04179,-1.24613 2.3151,-2.25516 1.2733,-1.00902 4.24818,-3.36626 6.61097,-5.23844 2.3628,-1.87219 4.23108,-3.50898 4.15168,-3.6375 -0.0794,-0.12852 -3.88082,-0.23358 -8.44755,-0.23358 -5.5338,0 -8.36058,-0.0932 -8.47545,-0.27905 -0.30541,-0.49417 -4.88527,-13.84196 -4.89427,-14.263216 -0.005,-0.223788 -0.18655,-0.642348 -0.40411,-0.930175 -0.17143,-0.226788 -0.3266,-0.362606 -0.49196,-0.3576 z m 0.75396,12.120191 c 0.13035,0 0.75542,1.51804 1.38906,3.37344 l 1.15187,3.37343 4.96094,0.0718 c 3.70646,0.0538 4.96069,0.15414 4.9599,0.39688 -5.3e-4,0.17869 -1.66398,1.63473 -3.69641,3.23546 -2.69109,2.11946 -3.69714,3.06623 -3.70314,3.48351 -0.004,0.31514 0.58757,2.37892 1.31517,4.58628 0.72761,2.20737 1.32291,4.1223 1.32291,4.25555 h 5.3e-4 c 0,0.13324 -0.14882,0.23365 -0.33073,0.22325 -0.44065,-0.0252 -7.09688,-4.34862 -7.37836,-4.79248 -0.30088,-0.47376 -0.29238,-18.20715 0.008,-18.20715 z"
       id="path1469" />
    <path
       style="fill:#cc0bfd;stroke-width:0.26458332"
       d="m 8.923328,42.011195 c 0,-0.17499 1.078524,-3.57162 2.39672,-7.54805 1.318195,-3.97644 2.326112,-7.4349 2.239814,-7.68548 -0.0863,-0.25057 -3.006388,-2.65824 -6.489088,-5.35037 -3.4827,-2.69214 -6.336085,-4.98409 -6.340856,-5.09323 -0.0048,-0.10914 3.599976,-0.19844 8.010548,-0.19844 6.012672,0 8.1254,-0.0828 8.443567,-0.33073 0.350006,-0.27279 4.314463,-11.310224 5.321888,-14.816654 0.32537,-1.13249 0.57281,-1.25482 0.80273,-0.39688 0.27511,1.02659 0.19109,32.742184 -0.0867,32.742184 -0.13943,0 -3.296109,2.02406 -7.014835,4.49791 -3.718725,2.47386 -6.878864,4.49792 -7.022531,4.49792 -0.143666,0 -0.261211,-0.14318 -0.261211,-0.31818 z"
       id="path1477" />
  </g>
</svg>
